<svg xmlns="http://www.w3.org/2000/svg" viewBox="0 0 244.3 75.23"><defs><style>.cls-1{opacity:0.85;}.cls-2{fill:#3a5e93;}.cls-3{fill:none;stroke:#3a5e93;stroke-miterlimit:10;stroke-width:1.26px;}.cls-4{fill:#fff;}.cls-5{isolation:isolate;}</style></defs><title>Asset 1</title><g id="Layer_2" data-name="Layer 2"><g id="Layer_1-2" data-name="Layer 1"><g id="_Group_" data-name="&lt;Group&gt;" class="cls-1"><path class="cls-2" d="M237.8,68.7c1.1,1.1,2.2,2.9,1.2,4.1-.7,1-2.2,1.1-3.4,1.1q-110.55.3-221.1.7l-.3-2.2c-2-6.9,3.9-13.6,10.1-17.7,2.3-1.6,6.7-4.9,10.4-8,3.2-2.7,10-15,13.3-17.5,3.5-2.7,7.7-2,11.2,1.2,1.6,1.5,13,15.1,19.6,16.3,8.2,1.5,15.9-5.5,24.2-4.9,9,.6,14.9,9.7,23.6,11.9,6.5,1.7,13.6-.7,20,1.4,3.1,1,5.8,3,9,3.6,4.6.9,9.3-1.4,13-4s7.3-5.8,11.7-7.3,13.8,11.3,17.4,12.8c1.7.7,3.7.3,5.6-.1C215.4,57.5,229.3,60,237.8,68.7Z"/><path class="cls-3" d="M14.4,74.6q110.55-.3,221.1-.7c1.3,0,2.7-.1,3.4-1.1.9-1.3-.1-3-1.2-4.1-8.4-8.7-22.4-11.2-34.6-8.7-1.8.4-3.8.9-5.6.1-3.5-1.5-12.9-14.3-17.4-12.8s-7.9,4.7-11.7,7.3-8.4,4.9-13,4c-3.2-.6-5.9-2.6-9-3.6-6.3-2.1-13.5.3-20-1.4-8.7-2.2-14.6-11.3-23.6-11.9-8.3-.6-16,6.4-24.2,4.9-6.5-1.2-18-14.9-19.6-16.3-3.5-3.2-7.7-3.9-11.2-1.2-3.3,2.5-10.1,14.8-13.3,17.5-3.7,3.1-8.1,6.5-10.4,8-6.1,4.2-12,10.9-10,17.8"/></g><polygon class="cls-4" points="141.9 7.1 141.5 61 133.1 60.9 133.5 7 141.9 7.1"/><g class="cls-5"><path class="cls-4" d="M83.88,34.11H68.82v14H85.6v4.2H63.81V13.52H84.74v4.2H68.82V30H83.88Z"/><path class="cls-4" d="M92.1,52.29V13.52h5.46L110,33.14a109.81,109.81,0,0,1,7,12.6l.12-.06c-.46-5.18-.58-9.89-.58-15.93V13.52h4.71V52.29h-5.06l-12.3-19.67a123.12,123.12,0,0,1-7.24-12.94l-.17.06c.29,4.89.4,9.55.4,16V52.29Z"/></g><g class="cls-5"><path class="cls-4" d="M154.56,13.09V36c0,8.69,3.85,12.37,9,12.37,5.75,0,9.43-3.8,9.43-12.37v-23h5.06V35.7c0,11.91-6.27,16.8-14.66,16.8-7.94,0-13.91-4.54-13.91-16.57V13.09Z"/><path class="cls-4" d="M186.75,13.61a52,52,0,0,1,9.6-.81c5.35,0,8.8,1,11.21,3.16a9.66,9.66,0,0,1,3,7.36,10.18,10.18,0,0,1-7.3,9.89v.17c3,1,4.77,3.8,5.69,7.82,1.26,5.41,2.18,9.15,3,10.64h-5.17c-.63-1.09-1.49-4.43-2.59-9.26-1.15-5.35-3.22-7.36-7.76-7.54h-4.71v16.8h-5Zm5,17.66h5.12c5.35,0,8.74-2.93,8.74-7.36,0-5-3.62-7.19-8.91-7.25a20.59,20.59,0,0,0-4.94.46Z"/><path class="cls-4" d="M237.75,33.68H222.69v14h16.79v4.2H217.69V13.09h20.93v4.2H222.69V29.54h15.06Z"/></g><polygon class="cls-4" points="244.3 0 244.3 7.8 60.7 7.8 36.4 61.2 0 0 11.2 0 35.6 40.3 53.7 0 244.3 0"/><g class="cls-5"><path class="cls-4" d="M187.88,64.6c0,4.68-2.84,7.16-6.31,7.16s-6.11-2.78-6.11-6.89c0-4.31,2.68-7.14,6.31-7.14S187.88,60.57,187.88,64.6Zm-10.54.22c0,2.9,1.57,5.5,4.33,5.5S186,67.77,186,64.68c0-2.7-1.41-5.52-4.33-5.52S177.34,61.84,177.34,64.82Z"/><path class="cls-4" d="M191.91,57.95v8c0,3,1.35,4.33,3.16,4.33,2,0,3.31-1.33,3.31-4.33v-8h1.77v7.92c0,4.17-2.2,5.89-5.14,5.89-2.78,0-4.88-1.59-4.88-5.8v-8Z"/><path class="cls-4" d="M205.78,59.44h-4.13V57.95h10.06v1.49h-4.15V71.54h-1.77Z"/></g></g></g></svg>